<svg xmlns="http://www.w3.org/2000/svg" version="1.1" xmlns:xlink="http://www.w3.org/1999/xlink" width="512" height="512" x="0" y="0" viewBox="0 0 512 512" style="enable-background:new 0 0 512 512" xml:space="preserve" class=""><g><path d="M256 0C115.3 0 0 115.3 0 256s115.3 256 256 256 256-115.3 256-256S396.7 0 256 0zM61 256c0-107.401 87.599-195 195-195 40.499 0 79.501 12.599 112.8 36.299L256 210.099 97.301 368.8C73.599 335.499 61 296.499 61 256zm195 195c-40.499 0-79.501-12.601-112.8-36.301l271.5-271.5c23.701 33.3 36.3 72.3 36.3 112.801 0 107.399-87.599 195-195 195z" style="" fill="#FF3636" data-original="#ff3636" class=""></path><path d="M512 256c0 140.7-115.3 256-256 256v-61c107.401 0 195-87.601 195-195 0-40.501-12.599-79.501-36.301-112.8L256 301.899v-91.8l112.8-112.8C335.501 73.599 296.499 61 256 61V0c140.7 0 256 115.3 256 256z" style="" fill="#F40000" data-original="#f40000" class=""></path></g></svg>