<svg xmlns="http://www.w3.org/2000/svg" version="1.1" xmlns:xlink="http://www.w3.org/1999/xlink" width="512" height="512" x="0" y="0" viewBox="0 0 512 512" style="enable-background:new 0 0 512 512" xml:space="preserve" class=""><g><path fill-rule="evenodd" d="M52.246 239.578c-9.043 9.043-9.043 23.803 0 32.846L229.378 449.55c9.057 9.057 23.79 9.057 32.846 0l9.908-9.908c9.065-9.065 9.067-23.79.001-32.857l-134.37-134.357c-9.067-9.065-9.067-23.793 0-32.858l134.369-134.358c9.067-9.066 9.066-23.79-.001-32.856l-9.908-9.908c-9.043-9.043-23.803-9.043-32.846 0zM416.988 62.446c9.052-9.053 23.799-9.052 32.851 0l9.908 9.908c9.048 9.048 9.049 23.808 0 32.857L325.384 239.57c-9.066 9.066-9.066 23.792 0 32.858l134.364 134.358c9.052 9.051 9.051 23.806 0 32.857l-9.908 9.908c-9.056 9.056-23.795 9.057-32.851 0L255.591 288.148c-45.274 45.229-33.822 33.759-.033-.033l-15.69-15.691c-9.049-9.049-9.048-23.798 0-32.847z" clip-rule="evenodd" fill="#FFFFFF" opacity="1" data-original="#000000"></path></g></svg>