<svg xmlns="http://www.w3.org/2000/svg" version="1.1" xmlns:xlink="http://www.w3.org/1999/xlink" width="512" height="512" x="0" y="0" viewBox="0 0 491.52 491.52" style="enable-background:new 0 0 512 512" xml:space="preserve" class=""><g><path d="M399.4 203.578H379.594v-69.744C379.593 60.039 319.556 0 245.759 0c-73.793 0-133.832 60.039-133.832 133.835v69.744H92.122c-15.656 0-28.35 12.692-28.35 28.349V463.17c0 15.658 12.693 28.35 28.35 28.35H399.4c15.656 0 28.348-12.692 28.348-28.35V231.928c0-15.658-12.692-28.35-28.348-28.35zm-123.465 203.07h-60.349l10.801-51.467c-10.101-6.428-16.848-17.652-16.848-30.512 0-20.003 16.218-36.219 36.221-36.219 20.004 0 36.219 16.216 36.219 36.219 0 12.86-6.745 24.084-16.845 30.51l10.801 51.469zm55.905-203.07H159.68v-69.744c0-47.469 38.613-86.081 86.08-86.081 47.469 0 86.08 38.613 86.08 86.081v69.744z" fill="#E64141" opacity="1" data-original="#000000" class=""></path></g></svg>