<svg xmlns="http://www.w3.org/2000/svg" version="1.1" xmlns:xlink="http://www.w3.org/1999/xlink" width="512" height="512" x="0" y="0" viewBox="0 0 512 512" style="enable-background:new 0 0 512 512" xml:space="preserve" class=""><g><path d="M496.093 189.613c-18.643-15.674-47.168-13.807-63.354 5.493l-9.727 11.508 68.945 57.849 9.288-11.466c15.975-19 13.954-47.376-5.152-63.384zM301.375 350.534l-5.131 6.072a45.352 45.352 0 0 0-9.272 18.457l-13.945 58.359a15.003 15.003 0 0 0 4.951 14.971c4.234 3.558 10.206 4.591 15.601 2.285l55.063-23.877a45.36 45.36 0 0 0 16.538-12.319l5.149-6.092-68.954-57.856zM403.656 229.517l-82.923 98.114 68.95 57.856 82.918-98.121zM376.02 66.504l-56.982-54.141c-5.387-5.107-12.014-8.115-18.999-10.069V90h89.052c-1.861-8.91-6.401-17.164-13.071-23.496z" fill="#FFFFFF" opacity="1" data-original="#000000" class=""></path><path d="M257.792 368.091c2.681-11.221 8.027-21.841 15.439-30.718l116.807-138.214V120h-105c-8.291 0-15-6.709-15-15V0h-225c-24.814 0-45 20.186-45 45v422c0 24.814 20.186 45 45 45h300c24.814 0 45-20.186 45-45v-35.459l-1.948 2.305c-7.368 8.775-16.875 15.85-27.466 20.465l-55.107 23.892c-15.532 6.707-33.511 4.331-46.816-6.812-13.14-11.03-18.838-28.242-14.854-44.941l13.945-58.359zM75.038 90h150c8.291 0 15 6.709 15 15s-6.709 15-15 15h-150c-8.291 0-15-6.709-15-15s6.709-15 15-15zm0 91h240c8.291 0 15 6.709 15 15s-6.709 15-15 15h-240c-8.291 0-15-6.709-15-15s6.709-15 15-15zm120 210h-120c-8.291 0-15-6.709-15-15s6.709-15 15-15h120c8.291 0 15 6.709 15 15s-6.709 15-15 15zm-120-90c-8.291 0-15-6.709-15-15s6.709-15 15-15h180c8.291 0 15 6.709 15 15s-6.709 15-15 15h-180z" fill="#FFFFFF" opacity="1" data-original="#000000" class=""></path></g></svg>