<svg xmlns="http://www.w3.org/2000/svg" version="1.1" xmlns:xlink="http://www.w3.org/1999/xlink" width="512" height="512" x="0" y="0" viewBox="0 0 356.62 356.62" style="enable-background:new 0 0 512 512" xml:space="preserve" class=""><g><path d="M178.31 0C79.99 0 0 79.99 0 178.311S79.99 356.62 178.31 356.62s178.31-79.989 178.31-178.31S276.63 0 178.31 0zm0 326.62C96.532 326.62 30 260.089 30 178.311S96.532 30 178.31 30s148.31 66.532 148.31 148.311S260.088 326.62 178.31 326.62z" fill="#F2994A" opacity="1" data-original="#000000" class=""></path><path d="M178.31 66.949c-35.58 0-64.527 28.947-64.527 64.527 0 8.284 6.716 15 15 15s15-6.716 15-15c0-19.038 15.489-34.527 34.527-34.527s34.527 15.489 34.527 34.527-15.489 34.527-34.527 34.527c-8.284 0-15 6.716-15 15v33.915c0 8.284 6.716 15 15 15s15-6.716 15-15v-20.675c28.371-6.779 49.527-32.35 49.527-62.768 0-35.579-28.947-64.526-64.527-64.526z" fill="#F2994A" opacity="1" data-original="#000000" class=""></path><circle cx="178.31" cy="265.899" r="20.999" fill="#F2994A" opacity="1" data-original="#000000" class=""></circle></g></svg>