<svg xmlns="http://www.w3.org/2000/svg" version="1.1" xmlns:xlink="http://www.w3.org/1999/xlink" width="512" height="512" x="0" y="0" viewBox="0 0 24 24" style="enable-background:new 0 0 512 512" xml:space="preserve"><g><path d="M12 2a10 10 0 1 0 10 10A10.012 10.012 0 0 0 12 2zm0 16a1 1 0 1 1 1-1 1 1 0 0 1-1 1zm1.871-5.542a1.7 1.7 0 0 0-.871 1.4V14a1 1 0 0 1-2 0v-.141a3.7 3.7 0 0 1 1.8-3.091 1.511 1.511 0 0 0 .645-1.685 1.474 1.474 0 0 0-1.029-1.03 1.516 1.516 0 0 0-1.333.259A1.491 1.491 0 0 0 10.5 9.5a1 1 0 0 1-2 0 3.5 3.5 0 0 1 6.882-.916 3.52 3.52 0 0 1-1.511 3.874z" fill="#FFFFFF" opacity="1" data-original="#000000"></path></g></svg>