<svg xmlns="http://www.w3.org/2000/svg" version="1.1" xmlns:xlink="http://www.w3.org/1999/xlink" width="512" height="512" x="0" y="0" viewBox="0 0 426.667 426.667" style="enable-background:new 0 0 512 512" xml:space="preserve" class=""><g><path d="M166.4 110.933v38.4h53.333v-38.4C219.733 49.067 170.667 0 110.933 0 49.067 0 0 49.067 0 110.933V192h53.333v-81.067c0-29.867 25.6-55.467 55.467-55.467 32-2.133 57.6 23.467 57.6 55.467zM396.8 187.733H157.867c-17.067 0-29.867 12.8-29.867 29.867v179.2c0 17.067 12.8 29.867 29.867 29.867H396.8c17.067 0 29.867-12.8 29.867-29.867V217.6c0-14.933-14.934-29.867-29.867-29.867zm-93.867 172.8h-49.067l10.667-51.2C256 305.067 249.6 294.4 249.6 283.733c0-17.067 12.8-29.867 29.867-29.867s29.867 12.8 29.867 29.867c0 10.667-6.4 19.2-14.933 25.6l8.532 51.2z" fill="#00BF9A" opacity="1" data-original="#000000" class=""></path></g></svg>