<svg width="200" height="200" viewBox="0 0 200 200" fill="none" xmlns="http://www.w3.org/2000/svg">
<circle cx="100" cy="100" r="100" fill="#2B69AD"/>
<path d="M100 37C81.8038 37 67 51.8037 67 69.9998C67 88.1959 81.8038 103 100 103C118.196 103 133 88.1959 133 69.9998C133 51.8037 118.196 37 100 37ZM141.058 124.558C132.024 115.385 120.047 110.333 107.333 110.333H92.6667C79.9536 110.333 67.9763 115.385 58.9416 124.558C49.9512 133.687 45 145.736 45 158.488C45 160.513 46.6417 162.155 48.6667 162.155H151.333C153.358 162.155 155 160.513 155 158.488C155 145.736 150.049 133.687 141.058 124.558Z" fill="white"/>
</svg>
